Coordinates
version=1
nRows=7
nColumns=38
inDegrees=yes

Units are S.I. units (second, meters, Newtons, ...)
Angles are in degrees.

endheader
time	pelvis_tilt	pelvis_list	pelvis_rotation	pelvis_tx	pelvis_ty	pelvis_tz	hip_flexion_r	hip_adduction_r	hip_rotation_r	knee_angle_r	ankle_angle_r	subtalar_angle_r	mtp_angle_r	hip_flexion_l	hip_adduction_l	hip_rotation_l	knee_angle_l	ankle_angle_l	subtalar_angle_l	mtp_angle_l	lumbar_extension	lumbar_bending	lumbar_rotation	arm_flex_r	arm_add_r	arm_rot_r	elbow_flex_r	pro_sup_r	wrist_flex_r	wrist_dev_r	arm_flex_l	arm_add_l	arm_rot_l	elbow_flex_l	pro_sup_l	wrist_flex_l	wrist_dev_l
      3.05000000	     -1.31096121	     -1.11955516	      0.65462931	     -0.98775441	      0.92834439	     -0.20242695	      3.61790853	      4.42431064	     -6.28787721	    -17.43842202	      9.58136758	      2.82780203	      1.75402371	     26.19679995	      1.69331121	      3.66239363	    -48.45262674	      0.02529787	     -4.87965370	     12.13583224	     -7.42519001	      4.38253668	     -0.11780764	     -0.06292640	    -21.38811869	     14.15602435	     31.70070451	     86.51662706	      0.00000000	      0.00000000	     -4.25244457	    -13.68356346	     17.51011963	     19.67738279	     86.51662706	      0.00000000	      0.00000000
      3.06000000	     -1.13721758	     -1.17297350	      0.82381683	     -0.97649295	      0.92769045	     -0.20255686	      2.34605582	      4.57670102	     -6.35768889	    -16.84512888	      9.93238283	      2.35491303	      1.93909979	     26.47259316	      1.67369371	      3.93555810	    -45.49683394	      0.12140969	     -6.42225784	     11.63998661	     -7.66433726	      4.45884260	     -0.03481080	      0.30503065	    -21.64732928	     14.30179107	     32.40005239	     86.51662706	      0.00000000	      0.00000000	     -4.38231239	    -13.63545338	     17.40043429	     19.47208948	     86.51662706	      0.00000000	      0.00000000
      3.07000000	     -0.94188277	     -1.18300329	      0.92437301	     -0.96509383	      0.92691804	     -0.20267442	      1.04168524	      4.66970166	     -6.35454395	    -16.26922902	     10.31312672	      2.11162005	      2.13430934	     26.61432406	      1.65650173	      4.14709731	    -42.39403619	      0.12993331	     -7.88475498	     11.08170242	     -7.92064512	      4.47664427	      0.11051226	      0.61802385	    -21.86401612	     14.27721359	     33.11059538	     86.51662706	      0.00000000	      0.00000000	     -4.48513723	    -13.59704266	     17.28196367	     19.24612968	     86.51662706	      0.00000000	      0.00000000
      3.08000000	     -0.73623278	     -1.16808627	      0.98299822	     -0.95357685	      0.92602502	     -0.20280961	     -0.27898015	      4.72543957	     -6.29537327	    -15.71833220	     10.71637420	      2.01646089	      2.34141574	     26.64761040	      1.63457553	      4.32519326	    -39.17661387	      0.10131598	     -9.20047660	     10.48143290	     -8.18161817	      4.45757254	      0.29569702	      0.87830835	    -22.04597804	     14.11131565	     33.82749912	     86.51662706	      0.00000000	      0.00000000	     -4.56317578	    -13.56380640	     17.16855586	     18.99452121	     86.51662706	      0.00000000	      0.00000000
      3.09000000	     -0.53478841	     -1.14811941	      1.02811882	     -0.94195600	      0.92500192	     -0.20298310	     -1.59205756	      4.76936723	     -6.19995343	    -15.20359488	     11.13234999	      1.97583119	      2.56178583	     26.60431224	      1.60016626	      4.49664631	    -35.89018310	      0.09215906	    -10.27896919	      9.86814419	     -8.42923018	      4.42523759	      0.49464686	      1.08856361	    -22.20173747	     13.83992828	     34.54338430	     86.51662706	      0.00000000	      0.00000000	     -4.61868325	    -13.53130045	     17.07760378	     18.71120556	     86.51662706	      0.00000000	      0.00000000
      3.10000000	     -0.35321398	     -1.13846125	      1.08165750	     -0.93023712	      0.92383211	     -0.20320560	     -2.86960574	      4.82376500	     -6.08672149	    -14.73895482	     11.54957273	      1.90810992	      2.79559759	     26.51688780	      1.54753548	      4.67530995	    -32.58869061	      0.15103609	    -11.02298946	      9.27492309	     -8.64249160	      4.39871577	      0.68400048	      1.25162642	    -22.33850058	     13.49883389	     35.24894432	     86.51662706	      0.00000000	      0.00000000	     -4.65318183	    -13.49615554	     17.02670353	     18.39048156	     86.51662706	      0.00000000	      0.00000000
      3.11000000	     -0.20645482	     -1.14697775	      1.15567573	     -0.91841602	      0.92249685	     -0.20349341	     -4.08389537	      4.90340139	     -5.97047061	    -14.34035199	     11.95531689	      1.75900884	      3.04159929	     26.41510273	      1.47458046	      4.85579545	    -29.32985478	      0.31120828	    -11.34611769	      8.73452896	     -8.80090504	      4.38939560	      0.84702469	      1.37046183	    -22.46134208	     13.11931177	     35.93380393	     86.51662706	      0.00000000	      0.00000000	     -4.66714553	    -13.45601346	     17.03126854	     18.02815631	     86.51662706	      0.00000000	      0.00000000
